<?xml version="1.0" encoding="UTF-8"?>
<svg xmlns="http://www.w3.org/2000/svg" version="1.1" width="300" height="300" viewBox="0 0 300 300"><rect x="0" y="0" width="300" height="300" fill="#ffffff"/><g transform="scale(5.263)"><g transform="translate(10,10)"><path fill-rule="evenodd" d="M10 0L10 2L11 2L11 0ZM12 0L12 1L13 1L13 2L12 2L12 4L14 4L14 3L15 3L15 4L16 4L16 5L15 5L15 6L14 6L14 5L11 5L11 6L10 6L10 4L11 4L11 3L8 3L8 4L9 4L9 5L8 5L8 7L9 7L9 8L6 8L6 9L7 9L7 10L6 10L6 11L5 11L5 10L4 10L4 13L0 13L0 15L1 15L1 14L2 14L2 15L4 15L4 16L5 16L5 17L8 17L8 18L6 18L6 19L9 19L9 20L13 20L13 21L10 21L10 22L9 22L9 21L8 21L8 20L6 20L6 21L2 21L2 20L5 20L5 18L4 18L4 17L3 17L3 18L2 18L2 20L1 20L1 18L0 18L0 20L1 20L1 21L2 21L2 22L3 22L3 24L4 24L4 23L8 23L8 24L9 24L9 25L8 25L8 26L6 26L6 27L7 27L7 28L6 28L6 29L8 29L8 31L9 31L9 32L8 32L8 37L11 37L11 34L12 34L12 36L13 36L13 37L14 37L14 36L15 36L15 37L17 37L17 35L18 35L18 36L20 36L20 37L21 37L21 36L22 36L22 37L27 37L27 34L24 34L24 33L23 33L23 32L22 32L22 31L23 31L23 30L24 30L24 31L25 31L25 30L26 30L26 29L28 29L28 32L27 32L27 31L26 31L26 32L25 32L25 33L29 33L29 34L31 34L31 37L37 37L37 34L35 34L35 35L36 35L36 36L32 36L32 34L34 34L34 33L37 33L37 32L33 32L33 31L37 31L37 30L36 30L36 29L34 29L34 28L32 28L32 26L29 26L29 25L31 25L31 21L33 21L33 18L34 18L34 19L36 19L36 21L35 21L35 20L34 20L34 21L35 21L35 23L37 23L37 18L36 18L36 17L37 17L37 16L36 16L36 17L35 17L35 16L32 16L32 17L33 17L33 18L32 18L32 20L31 20L31 18L30 18L30 20L29 20L29 21L28 21L28 19L29 19L29 17L28 17L28 16L27 16L27 15L28 15L28 14L29 14L29 15L30 15L30 17L31 17L31 14L32 14L32 15L33 15L33 14L32 14L32 13L31 13L31 12L33 12L33 11L34 11L34 10L33 10L33 11L31 11L31 10L32 10L32 8L31 8L31 9L30 9L30 8L29 8L29 5L27 5L27 6L26 6L26 8L25 8L25 6L24 6L24 9L23 9L23 6L22 6L22 4L23 4L23 5L24 5L24 4L23 4L23 3L25 3L25 4L28 4L28 1L29 1L29 0L26 0L26 1L27 1L27 3L25 3L25 1L24 1L24 0L21 0L21 1L24 1L24 2L23 2L23 3L22 3L22 2L20 2L20 4L19 4L19 3L17 3L17 2L16 2L16 1L20 1L20 0L16 0L16 1L14 1L14 0ZM8 1L8 2L9 2L9 1ZM13 2L13 3L14 3L14 2ZM21 3L21 4L20 4L20 5L19 5L19 4L17 4L17 5L16 5L16 6L15 6L15 7L14 7L14 6L13 6L13 7L12 7L12 6L11 6L11 7L12 7L12 8L14 8L14 9L15 9L15 10L14 10L14 11L13 11L13 10L12 10L12 9L11 9L11 8L10 8L10 9L8 9L8 11L6 11L6 12L9 12L9 11L10 11L10 12L12 12L12 14L10 14L10 16L9 16L9 13L5 13L5 14L4 14L4 15L5 15L5 14L8 14L8 16L9 16L9 17L10 17L10 16L11 16L11 17L12 17L12 16L11 16L11 15L12 15L12 14L14 14L14 15L13 15L13 16L14 16L14 17L13 17L13 18L14 18L14 19L13 19L13 20L14 20L14 21L13 21L13 24L12 24L12 22L10 22L10 23L11 23L11 25L10 25L10 27L11 27L11 28L14 28L14 29L13 29L13 32L12 32L12 30L11 30L11 29L10 29L10 30L11 30L11 32L12 32L12 33L13 33L13 32L14 32L14 34L13 34L13 36L14 36L14 34L16 34L16 35L15 35L15 36L16 36L16 35L17 35L17 34L18 34L18 33L17 33L17 32L18 32L18 31L19 31L19 33L20 33L20 31L21 31L21 29L22 29L22 28L21 28L21 27L25 27L25 28L23 28L23 29L24 29L24 30L25 30L25 28L30 28L30 27L26 27L26 26L28 26L28 25L26 25L26 24L27 24L27 22L28 22L28 23L30 23L30 21L29 21L29 22L28 22L28 21L27 21L27 19L26 19L26 18L28 18L28 17L26 17L26 18L25 18L25 19L24 19L24 18L22 18L22 16L23 16L23 17L24 17L24 16L23 16L23 15L24 15L24 14L25 14L25 16L26 16L26 14L28 14L28 13L29 13L29 14L30 14L30 13L29 13L29 12L27 12L27 11L25 11L25 9L24 9L24 10L23 10L23 9L22 9L22 8L21 8L21 7L22 7L22 6L21 6L21 4L22 4L22 3ZM18 5L18 8L16 8L16 7L17 7L17 6L16 6L16 7L15 7L15 9L16 9L16 10L15 10L15 15L16 15L16 17L14 17L14 18L15 18L15 21L14 21L14 22L15 22L15 24L16 24L16 23L18 23L18 24L17 24L17 25L16 25L16 26L15 26L15 25L14 25L14 24L13 24L13 25L11 25L11 26L13 26L13 27L14 27L14 26L15 26L15 28L17 28L17 29L16 29L16 30L15 30L15 29L14 29L14 32L15 32L15 33L16 33L16 34L17 34L17 33L16 33L16 31L17 31L17 30L20 30L20 29L19 29L19 28L20 28L20 27L19 27L19 26L20 26L20 25L21 25L21 26L26 26L26 25L25 25L25 21L26 21L26 20L23 20L23 19L22 19L22 18L21 18L21 21L22 21L22 23L21 23L21 24L20 24L20 23L19 23L19 22L20 22L20 21L19 21L19 20L20 20L20 19L19 19L19 18L20 18L20 17L21 17L21 16L22 16L22 15L23 15L23 12L24 12L24 11L23 11L23 10L22 10L22 11L21 11L21 12L20 12L20 13L19 13L19 10L20 10L20 9L21 9L21 8L20 8L20 7L21 7L21 6L20 6L20 7L19 7L19 5ZM9 6L9 7L10 7L10 6ZM27 6L27 7L28 7L28 6ZM0 8L0 10L1 10L1 11L0 11L0 12L1 12L1 11L2 11L2 10L3 10L3 9L5 9L5 8ZM19 8L19 9L18 9L18 10L17 10L17 12L18 12L18 10L19 10L19 9L20 9L20 8ZM28 8L28 9L26 9L26 10L28 10L28 11L29 11L29 10L30 10L30 9L29 9L29 8ZM33 8L33 9L34 9L34 8ZM35 8L35 9L36 9L36 8ZM10 9L10 10L11 10L11 9ZM28 9L28 10L29 10L29 9ZM35 10L35 12L34 12L34 13L36 13L36 11L37 11L37 10ZM22 11L22 12L21 12L21 13L20 13L20 14L17 14L17 16L19 16L19 17L17 17L17 18L16 18L16 19L17 19L17 20L16 20L16 21L15 21L15 22L16 22L16 21L17 21L17 22L19 22L19 21L17 21L17 20L18 20L18 18L19 18L19 17L20 17L20 16L21 16L21 13L22 13L22 12L23 12L23 11ZM13 12L13 13L14 13L14 12ZM25 12L25 13L27 13L27 12ZM35 14L35 15L37 15L37 14ZM6 15L6 16L7 16L7 15ZM19 15L19 16L20 16L20 15ZM0 16L0 17L2 17L2 16ZM34 17L34 18L35 18L35 17ZM3 18L3 19L4 19L4 18ZM10 18L10 19L12 19L12 18ZM6 21L6 22L8 22L8 23L9 23L9 22L8 22L8 21ZM23 22L23 23L24 23L24 22ZM32 22L32 23L34 23L34 22ZM0 23L0 24L1 24L1 23ZM6 24L6 25L7 25L7 24ZM23 24L23 25L24 25L24 24ZM32 24L32 25L33 25L33 24ZM36 24L36 25L37 25L37 24ZM0 25L0 29L1 29L1 25ZM4 25L4 27L3 27L3 28L2 28L2 29L3 29L3 28L4 28L4 29L5 29L5 28L4 28L4 27L5 27L5 25ZM13 25L13 26L14 26L14 25ZM17 25L17 26L16 26L16 27L17 27L17 28L18 28L18 27L17 27L17 26L18 26L18 25ZM34 25L34 27L35 27L35 28L36 28L36 27L37 27L37 26L36 26L36 27L35 27L35 25ZM8 26L8 29L9 29L9 26ZM29 29L29 32L32 32L32 29ZM33 29L33 30L34 30L34 29ZM30 30L30 31L31 31L31 30ZM9 32L9 33L10 33L10 34L11 34L11 33L10 33L10 32ZM21 32L21 33L22 33L22 35L23 35L23 36L24 36L24 34L23 34L23 33L22 33L22 32ZM31 33L31 34L32 34L32 33ZM19 34L19 35L20 35L20 36L21 36L21 34ZM9 35L9 36L10 36L10 35ZM25 35L25 36L26 36L26 35ZM28 35L28 36L29 36L29 35ZM0 0L0 7L7 7L7 0ZM1 1L1 6L6 6L6 1ZM2 2L2 5L5 5L5 2ZM30 0L30 7L37 7L37 0ZM31 1L31 6L36 6L36 1ZM32 2L32 5L35 5L35 2ZM0 30L0 37L7 37L7 30ZM1 31L1 36L6 36L6 31ZM2 32L2 35L5 35L5 32Z" fill="#000000"/></g></g></svg>
