<?xml version="1.0" encoding="UTF-8"?>
<svg xmlns="http://www.w3.org/2000/svg" version="1.1" width="300" height="300" viewBox="0 0 300 300"><rect x="0" y="0" width="300" height="300" fill="#ffffff"/><g transform="scale(5.263)"><g transform="translate(10,10)"><path fill-rule="evenodd" d="M8 0L8 1L9 1L9 2L8 2L8 5L9 5L9 4L11 4L11 5L10 5L10 9L9 9L9 8L8 8L8 10L6 10L6 9L7 9L7 8L6 8L6 9L4 9L4 8L0 8L0 10L1 10L1 13L2 13L2 12L4 12L4 15L1 15L1 14L0 14L0 15L1 15L1 16L0 16L0 17L1 17L1 19L0 19L0 20L1 20L1 21L0 21L0 22L1 22L1 23L2 23L2 24L3 24L3 23L5 23L5 22L4 22L4 21L5 21L5 20L6 20L6 21L8 21L8 23L7 23L7 22L6 22L6 23L7 23L7 24L6 24L6 25L7 25L7 26L6 26L6 27L5 27L5 26L4 26L4 25L1 25L1 24L0 24L0 25L1 25L1 27L0 27L0 28L1 28L1 27L2 27L2 29L4 29L4 28L5 28L5 29L7 29L7 28L8 28L8 30L9 30L9 31L10 31L10 32L9 32L9 33L8 33L8 37L9 37L9 36L10 36L10 34L11 34L11 35L14 35L14 34L15 34L15 33L14 33L14 32L13 32L13 30L14 30L14 29L12 29L12 28L14 28L14 27L15 27L15 28L16 28L16 29L15 29L15 31L16 31L16 30L17 30L17 28L16 28L16 27L15 27L15 26L16 26L16 24L17 24L17 25L21 25L21 23L20 23L20 24L17 24L17 23L19 23L19 22L17 22L17 21L18 21L18 19L19 19L19 17L18 17L18 18L17 18L17 17L16 17L16 16L17 16L17 14L19 14L19 15L18 15L18 16L19 16L19 15L20 15L20 13L21 13L21 10L23 10L23 11L22 11L22 12L23 12L23 11L24 11L24 12L26 12L26 13L25 13L25 14L26 14L26 16L28 16L28 15L27 15L27 14L29 14L29 15L30 15L30 16L29 16L29 17L30 17L30 19L29 19L29 18L28 18L28 17L25 17L25 15L23 15L23 13L22 13L22 15L21 15L21 17L20 17L20 19L21 19L21 17L22 17L22 18L24 18L24 19L23 19L23 20L19 20L19 21L20 21L20 22L21 22L21 21L23 21L23 22L22 22L22 24L24 24L24 22L25 22L25 20L24 20L24 19L26 19L26 18L27 18L27 20L26 20L26 22L29 22L29 23L27 23L27 24L26 24L26 23L25 23L25 25L26 25L26 26L25 26L25 27L23 27L23 26L21 26L21 27L20 27L20 26L18 26L18 27L20 27L20 32L21 32L21 33L19 33L19 34L20 34L20 35L19 35L19 36L17 36L17 37L20 37L20 36L21 36L21 34L22 34L22 32L21 32L21 28L22 28L22 29L23 29L23 30L22 30L22 31L23 31L23 30L24 30L24 31L26 31L26 34L29 34L29 35L30 35L30 34L31 34L31 35L33 35L33 36L31 36L31 37L37 37L37 36L35 36L35 35L34 35L34 33L33 33L33 32L34 32L34 31L35 31L35 32L37 32L37 28L36 28L36 27L35 27L35 30L34 30L34 29L33 29L33 28L32 28L32 27L31 27L31 26L30 26L30 25L31 25L31 24L32 24L32 26L33 26L33 27L34 27L34 26L37 26L37 23L36 23L36 25L33 25L33 24L35 24L35 23L33 23L33 24L32 24L32 23L30 23L30 22L31 22L31 21L30 21L30 19L31 19L31 18L32 18L32 19L33 19L33 20L32 20L32 21L34 21L34 19L35 19L35 20L36 20L36 19L37 19L37 17L36 17L36 16L34 16L34 19L33 19L33 18L32 18L32 17L30 17L30 16L31 16L31 15L36 15L36 14L37 14L37 13L36 13L36 12L37 12L37 11L33 11L33 10L32 10L32 9L35 9L35 8L32 8L32 9L30 9L30 8L29 8L29 9L28 9L28 10L29 10L29 9L30 9L30 10L32 10L32 12L34 12L34 13L31 13L31 12L30 12L30 11L27 11L27 8L28 8L28 7L29 7L29 4L28 4L28 3L29 3L29 0L28 0L28 3L26 3L26 0L22 0L22 1L23 1L23 2L22 2L22 3L23 3L23 2L24 2L24 1L25 1L25 4L27 4L27 5L24 5L24 7L23 7L23 6L22 6L22 8L21 8L21 9L19 9L19 10L20 10L20 11L19 11L19 12L17 12L17 10L16 10L16 8L17 8L17 9L18 9L18 7L19 7L19 8L20 8L20 7L21 7L21 5L22 5L22 4L19 4L19 3L17 3L17 1L18 1L18 0L17 0L17 1L16 1L16 0L12 0L12 1L11 1L11 0L10 0L10 1L9 1L9 0ZM19 0L19 1L20 1L20 2L21 2L21 1L20 1L20 0ZM14 1L14 2L11 2L11 4L12 4L12 3L13 3L13 5L12 5L12 6L11 6L11 8L12 8L12 6L13 6L13 8L14 8L14 9L15 9L15 7L16 7L16 6L15 6L15 5L16 5L16 4L17 4L17 3L16 3L16 1ZM14 3L14 5L13 5L13 6L14 6L14 7L15 7L15 6L14 6L14 5L15 5L15 4L16 4L16 3ZM18 4L18 6L17 6L17 7L18 7L18 6L19 6L19 7L20 7L20 6L19 6L19 4ZM27 5L27 7L28 7L28 5ZM8 6L8 7L9 7L9 6ZM25 6L25 8L24 8L24 9L26 9L26 6ZM36 8L36 9L37 9L37 8ZM11 9L11 10L10 10L10 11L9 11L9 10L8 10L8 12L10 12L10 14L11 14L11 13L12 13L12 12L13 12L13 14L12 14L12 16L11 16L11 15L10 15L10 17L8 17L8 16L9 16L9 13L5 13L5 15L4 15L4 16L5 16L5 17L3 17L3 16L1 16L1 17L3 17L3 19L5 19L5 17L6 17L6 18L7 18L7 19L6 19L6 20L8 20L8 21L11 21L11 23L14 23L14 22L15 22L15 23L17 23L17 22L16 22L16 21L17 21L17 20L16 20L16 19L15 19L15 20L16 20L16 21L13 21L13 18L14 18L14 15L15 15L15 16L16 16L16 15L15 15L15 14L16 14L16 13L17 13L17 12L16 12L16 10L14 10L14 11L11 11L11 10L12 10L12 9ZM2 10L2 11L4 11L4 12L5 12L5 11L4 11L4 10ZM24 10L24 11L26 11L26 10ZM6 11L6 12L7 12L7 11ZM10 11L10 12L11 12L11 11ZM14 12L14 14L13 14L13 15L14 15L14 14L15 14L15 13L16 13L16 12ZM19 12L19 13L20 13L20 12ZM26 13L26 14L27 14L27 13ZM30 13L30 15L31 15L31 13ZM34 13L34 14L35 14L35 13ZM6 14L6 15L7 15L7 16L6 16L6 17L7 17L7 18L8 18L8 19L9 19L9 20L10 20L10 19L9 19L9 18L8 18L8 17L7 17L7 16L8 16L8 15L7 15L7 14ZM12 16L12 17L13 17L13 16ZM22 16L22 17L23 17L23 16ZM10 17L10 18L11 18L11 17ZM15 17L15 18L16 18L16 17ZM24 17L24 18L25 18L25 17ZM11 19L11 20L12 20L12 19ZM23 20L23 21L24 21L24 20ZM27 20L27 21L29 21L29 22L30 22L30 21L29 21L29 20ZM2 21L2 23L3 23L3 21ZM35 21L35 22L37 22L37 21ZM9 23L9 24L10 24L10 23ZM12 24L12 26L11 26L11 25L10 25L10 26L9 26L9 27L10 27L10 26L11 26L11 28L9 28L9 29L11 29L11 30L12 30L12 29L11 29L11 28L12 28L12 26L13 26L13 27L14 27L14 26L15 26L15 24ZM28 24L28 26L26 26L26 27L25 27L25 28L24 28L24 30L25 30L25 28L26 28L26 29L27 29L27 30L26 30L26 31L27 31L27 33L28 33L28 29L27 29L27 28L26 28L26 27L28 27L28 26L29 26L29 24ZM13 25L13 26L14 26L14 25ZM2 26L2 27L3 27L3 26ZM7 26L7 27L6 27L6 28L7 28L7 27L8 27L8 26ZM22 27L22 28L23 28L23 27ZM30 27L30 28L31 28L31 27ZM18 29L18 31L17 31L17 34L16 34L16 35L18 35L18 31L19 31L19 29ZM29 29L29 32L32 32L32 29ZM30 30L30 31L31 31L31 30ZM11 31L11 32L12 32L12 31ZM23 32L23 36L22 36L22 37L23 37L23 36L24 36L24 37L26 37L26 35L25 35L25 36L24 36L24 34L25 34L25 32ZM11 33L11 34L12 34L12 33ZM31 33L31 34L32 34L32 33ZM35 33L35 34L37 34L37 33ZM12 36L12 37L13 37L13 36ZM14 36L14 37L15 37L15 36ZM27 36L27 37L28 37L28 36ZM0 0L0 7L7 7L7 0ZM1 1L1 6L6 6L6 1ZM2 2L2 5L5 5L5 2ZM30 0L30 7L37 7L37 0ZM31 1L31 6L36 6L36 1ZM32 2L32 5L35 5L35 2ZM0 30L0 37L7 37L7 30ZM1 31L1 36L6 36L6 31ZM2 32L2 35L5 35L5 32Z" fill="#000000"/></g></g></svg>
