<?xml version="1.0" encoding="UTF-8"?>
<svg xmlns="http://www.w3.org/2000/svg" version="1.1" width="300" height="300" viewBox="0 0 300 300"><rect x="0" y="0" width="300" height="300" fill="#ffffff"/><g transform="scale(5.263)"><g transform="translate(10,10)"><path fill-rule="evenodd" d="M9 0L9 1L8 1L8 3L9 3L9 4L8 4L8 8L6 8L6 9L7 9L7 10L6 10L6 11L5 11L5 9L4 9L4 8L3 8L3 9L2 9L2 8L0 8L0 9L1 9L1 10L0 10L0 11L1 11L1 10L2 10L2 12L6 12L6 13L5 13L5 14L6 14L6 15L2 15L2 14L3 14L3 13L0 13L0 15L1 15L1 16L6 16L6 17L7 17L7 18L4 18L4 19L3 19L3 20L2 20L2 21L1 21L1 18L3 18L3 17L1 17L1 18L0 18L0 21L1 21L1 22L0 22L0 25L1 25L1 26L0 26L0 27L1 27L1 28L0 28L0 29L5 29L5 28L6 28L6 29L7 29L7 28L8 28L8 31L9 31L9 33L8 33L8 34L9 34L9 35L8 35L8 37L10 37L10 36L9 36L9 35L10 35L10 34L11 34L11 33L10 33L10 32L12 32L12 31L14 31L14 29L16 29L16 30L18 30L18 29L20 29L20 34L18 34L18 33L19 33L19 32L18 32L18 31L15 31L15 32L16 32L16 34L17 34L17 35L16 35L16 36L17 36L17 35L20 35L20 36L21 36L21 37L22 37L22 36L23 36L23 37L26 37L26 35L25 35L25 34L26 34L26 33L27 33L27 31L28 31L28 33L31 33L31 34L32 34L32 36L31 36L31 35L30 35L30 36L31 36L31 37L32 37L32 36L33 36L33 35L34 35L34 33L33 33L33 28L30 28L30 27L32 27L32 26L31 26L31 24L33 24L33 25L35 25L35 27L36 27L36 28L37 28L37 22L35 22L35 23L36 23L36 25L35 25L35 24L33 24L33 23L32 23L32 21L34 21L34 20L35 20L35 21L37 21L37 20L36 20L36 19L37 19L37 13L36 13L36 12L37 12L37 9L36 9L36 8L34 8L34 9L35 9L35 13L34 13L34 12L32 12L32 13L31 13L31 12L30 12L30 11L33 11L33 10L30 10L30 9L33 9L33 8L30 8L30 9L29 9L29 8L28 8L28 7L29 7L29 5L28 5L28 3L29 3L29 1L27 1L27 2L28 2L28 3L26 3L26 4L25 4L25 2L24 2L24 0L23 0L23 1L22 1L22 4L23 4L23 5L24 5L24 7L23 7L23 6L22 6L22 5L21 5L21 2L20 2L20 3L19 3L19 4L20 4L20 5L19 5L19 6L18 6L18 7L17 7L17 6L16 6L16 5L17 5L17 3L18 3L18 2L19 2L19 1L21 1L21 0L17 0L17 1L16 1L16 0L12 0L12 1L11 1L11 2L9 2L9 1L10 1L10 0ZM13 2L13 3L12 3L12 4L9 4L9 5L10 5L10 6L9 6L9 7L10 7L10 8L8 8L8 10L7 10L7 11L6 11L6 12L7 12L7 13L6 13L6 14L8 14L8 15L6 15L6 16L8 16L8 17L10 17L10 18L8 18L8 19L6 19L6 20L8 20L8 22L7 22L7 21L6 21L6 22L5 22L5 19L4 19L4 20L3 20L3 21L2 21L2 22L1 22L1 24L2 24L2 26L1 26L1 27L2 27L2 28L3 28L3 27L2 27L2 26L3 26L3 25L4 25L4 27L6 27L6 28L7 28L7 27L6 27L6 26L7 26L7 25L10 25L10 26L12 26L12 27L13 27L13 26L14 26L14 28L13 28L13 29L12 29L12 30L11 30L11 27L9 27L9 26L8 26L8 27L9 27L9 29L10 29L10 30L11 30L11 31L12 31L12 30L13 30L13 29L14 29L14 28L15 28L15 27L16 27L16 26L17 26L17 27L18 27L18 28L21 28L21 25L22 25L22 26L24 26L24 27L23 27L23 29L25 29L25 32L24 32L24 33L23 33L23 32L22 32L22 34L21 34L21 35L23 35L23 36L25 36L25 35L24 35L24 33L25 33L25 32L26 32L26 29L27 29L27 30L28 30L28 28L29 28L29 27L30 27L30 26L29 26L29 24L25 24L25 23L24 23L24 22L25 22L25 21L24 21L24 20L23 20L23 19L24 19L24 18L25 18L25 20L26 20L26 22L27 22L27 23L30 23L30 24L31 24L31 23L30 23L30 22L31 22L31 21L30 21L30 20L32 20L32 19L33 19L33 20L34 20L34 19L35 19L35 17L36 17L36 16L35 16L35 15L36 15L36 14L35 14L35 15L32 15L32 14L34 14L34 13L32 13L32 14L31 14L31 13L30 13L30 14L29 14L29 13L27 13L27 12L26 12L26 13L25 13L25 12L23 12L23 11L29 11L29 10L28 10L28 8L27 8L27 9L25 9L25 10L24 10L24 9L23 9L23 7L22 7L22 6L21 6L21 7L20 7L20 6L19 6L19 7L18 7L18 8L15 8L15 7L16 7L16 6L15 6L15 7L14 7L14 5L13 5L13 4L15 4L15 3L17 3L17 2L15 2L15 3L14 3L14 2ZM23 2L23 3L24 3L24 2ZM24 4L24 5L25 5L25 4ZM11 5L11 6L10 6L10 7L11 7L11 6L12 6L12 9L11 9L11 8L10 8L10 9L9 9L9 11L7 11L7 12L8 12L8 13L9 13L9 14L10 14L10 16L11 16L11 15L13 15L13 16L12 16L12 17L11 17L11 18L12 18L12 17L13 17L13 19L15 19L15 20L16 20L16 23L15 23L15 21L14 21L14 20L13 20L13 22L12 22L12 23L13 23L13 25L14 25L14 26L15 26L15 25L17 25L17 26L18 26L18 27L19 27L19 26L20 26L20 24L24 24L24 25L25 25L25 26L26 26L26 27L25 27L25 28L26 28L26 27L27 27L27 26L26 26L26 25L25 25L25 24L24 24L24 23L23 23L23 21L22 21L22 22L19 22L19 20L20 20L20 19L21 19L21 20L22 20L22 19L23 19L23 18L24 18L24 17L25 17L25 16L27 16L27 14L26 14L26 15L25 15L25 13L23 13L23 15L25 15L25 16L24 16L24 17L23 17L23 16L22 16L22 15L21 15L21 17L20 17L20 16L19 16L19 15L18 15L18 14L17 14L17 15L16 15L16 16L14 16L14 14L13 14L13 13L15 13L15 14L16 14L16 13L15 13L15 12L17 12L17 13L19 13L19 14L20 14L20 13L19 13L19 12L21 12L21 14L22 14L22 11L23 11L23 10L19 10L19 8L20 8L20 9L22 9L22 7L21 7L21 8L20 8L20 7L19 7L19 8L18 8L18 11L19 11L19 12L17 12L17 9L16 9L16 11L15 11L15 9L14 9L14 8L13 8L13 6L12 6L12 5ZM25 6L25 7L24 7L24 8L26 8L26 6ZM27 6L27 7L28 7L28 6ZM12 9L12 10L11 10L11 11L9 11L9 12L10 12L10 14L12 14L12 13L13 13L13 12L12 12L12 11L14 11L14 9ZM11 12L11 13L12 13L12 12ZM28 14L28 15L29 15L29 16L30 16L30 19L27 19L27 20L28 20L28 22L30 22L30 21L29 21L29 20L30 20L30 19L31 19L31 18L33 18L33 19L34 19L34 17L35 17L35 16L34 16L34 17L32 17L32 15L31 15L31 14L30 14L30 15L29 15L29 14ZM8 15L8 16L9 16L9 15ZM30 15L30 16L31 16L31 15ZM13 16L13 17L14 17L14 18L15 18L15 19L16 19L16 20L17 20L17 21L18 21L18 20L19 20L19 19L20 19L20 17L19 17L19 19L18 19L18 17L17 17L17 19L16 19L16 18L15 18L15 17L14 17L14 16ZM21 17L21 19L22 19L22 17ZM26 17L26 18L27 18L27 17ZM28 17L28 18L29 18L29 17ZM8 19L8 20L10 20L10 21L12 21L12 19ZM17 19L17 20L18 20L18 19ZM3 21L3 22L2 22L2 23L3 23L3 24L4 24L4 21ZM6 22L6 23L7 23L7 24L5 24L5 26L6 26L6 25L7 25L7 24L8 24L8 23L7 23L7 22ZM9 22L9 23L10 23L10 22ZM17 22L17 23L16 23L16 24L18 24L18 22ZM19 23L19 24L20 24L20 23ZM10 24L10 25L11 25L11 24ZM18 25L18 26L19 26L19 25ZM33 26L33 27L34 27L34 26ZM16 28L16 29L17 29L17 28ZM29 29L29 32L32 32L32 29ZM34 29L34 30L35 30L35 31L34 31L34 32L36 32L36 33L35 33L35 35L37 35L37 29ZM21 30L21 31L24 31L24 30ZM30 30L30 31L31 31L31 30ZM13 32L13 33L14 33L14 32ZM17 32L17 33L18 33L18 32ZM9 33L9 34L10 34L10 33ZM12 34L12 35L13 35L13 37L15 37L15 36L14 36L14 34ZM27 34L27 35L28 35L28 36L27 36L27 37L29 37L29 35L28 35L28 34ZM35 36L35 37L37 37L37 36ZM0 0L0 7L7 7L7 0ZM1 1L1 6L6 6L6 1ZM2 2L2 5L5 5L5 2ZM30 0L30 7L37 7L37 0ZM31 1L31 6L36 6L36 1ZM32 2L32 5L35 5L35 2ZM0 30L0 37L7 37L7 30ZM1 31L1 36L6 36L6 31ZM2 32L2 35L5 35L5 32Z" fill="#000000"/></g></g></svg>
