<svg xmlns="http://www.w3.org/2000/svg" xmlns:xlink="http://www.w3.org/1999/xlink" version="1.1" id="Layer_1" x="0px" y="0px" viewBox="0 0 410.17 149" style="enable-background:new 0 0 410.17 149;" xml:space="preserve" width="410.17"  height="149" >
<style type="text/css">
	.st0{fill:#ED1C24;}
	.st1{fill:#00AE4D;}
</style>
<g>
	<rect x="182" y="29.77" width="4.8" height="89.75"/>
	<path class="st0" d="M37.84,31.8H26.63v-2.04h24.61l26.78,67.83l26.27-67.83h24.22v1.9h-11.22v86.15l11.22-0.13v1.82h-24.23   l0.01-2.04V36.64h-0.25l-31.11,80.83h-1.15l-31.62-79.3h-0.26v68.72c0,8.42,1.15,10.58,7.9,10.58h5.11v2.04H26.63v-2.04h3.32   c6.76,0,7.9-2.17,7.9-10.58V31.8z"/>
	<path class="st1" d="M165.93,95.43c0-16.21-14.15-22.21-28.05-23.36v-0.25c9.18-0.89,25.63-2.68,25.63-22.21   c0-10.34-10.58-19.91-29.58-19.91H91.34v2.04h35.45c18.61,0,23.71,12.38,23.71,19.14c0,17.36-10.33,19.91-21.92,19.91h-11.31   l0.01,2.05h9.77c14.53,0,24.35,7.14,24.35,21.44c0,14.93-7.14,23.22-20.53,23.22H91.33v2.04h47.31   C150.63,119.55,165.93,112.66,165.93,95.43"/>
	<g>
		<path d="M202.7,30.21h4.85l7.88,12.25l7.88-12.25h4.85v25.9h-4.55V37.54l-8.18,12.21h-0.15l-8.1-12.14v18.5h-4.48V30.21z"/>
		<path d="M246.51,30.03h4.22l11.4,26.09h-4.81l-2.63-6.25h-12.25l-2.66,6.25h-4.66L246.51,30.03z M253.02,45.83l-4.48-10.36    l-4.44,10.36H253.02z"/>
		<path d="M267.93,43.24v-0.07c0-7.25,5.55-13.4,13.36-13.4c4.51,0,7.29,1.26,9.95,3.52l-2.89,3.44c-2-1.7-3.96-2.78-7.25-2.78    c-4.77,0-8.4,4.18-8.4,9.14v0.07c0,5.33,3.52,9.25,8.81,9.25c2.44,0,4.66-0.78,6.25-1.96v-4.85h-6.62v-3.96h11.03v10.88    c-2.55,2.18-6.22,4.03-10.8,4.03C273.26,56.56,267.93,50.79,267.93,43.24z"/>
		<path d="M308.23,45.9l-10.29-15.69h5.37l7.25,11.47l7.33-11.47h5.22l-10.29,15.58v10.32h-4.59V45.9z"/>
		<path d="M338.79,30.03h4.22l11.4,26.09h-4.81l-2.63-6.25h-12.25l-2.66,6.25h-4.66L338.79,30.03z M345.3,45.83l-4.48-10.36    l-4.44,10.36H345.3z"/>
		<path d="M361.36,30.21h11.54c3.26,0,5.81,0.96,7.47,2.59c1.37,1.41,2.15,3.33,2.15,5.59v0.07c0,4.26-2.55,6.81-6.18,7.84    l6.99,9.81h-5.37l-6.36-9.03h-0.07h-5.62v9.03h-4.55V30.21z M372.57,43.05c3.26,0,5.33-1.7,5.33-4.33v-0.07    c0-2.77-2-4.29-5.37-4.29h-6.62v8.7H372.57z"/>
		<path d="M202.7,62.21h11.62c2.96,0,5.29,0.81,6.77,2.29c1.15,1.15,1.74,2.55,1.74,4.29v0.07c0,3.11-1.78,4.77-3.7,5.77    c3.03,1.04,5.14,2.77,5.14,6.29v0.07c0,4.63-3.81,7.1-9.58,7.1H202.7V62.21z M213.4,73.13c2.92,0,4.88-1.15,4.88-3.52v-0.07    c0-2.04-1.63-3.29-4.55-3.29h-6.55v6.88H213.4z M214.73,84.08c3.11,0,5-1.22,5-3.55v-0.07c0-2.18-1.74-3.48-5.33-3.48h-7.22v7.1    H214.73z"/>
		<path d="M232.67,62.21h11.54c3.26,0,5.81,0.96,7.47,2.59c1.37,1.41,2.15,3.33,2.15,5.59v0.07c0,4.26-2.55,6.81-6.18,7.84    l6.99,9.81h-5.37l-6.36-9.03h-0.07h-5.62v9.03h-4.55V62.21z M243.88,75.05c3.26,0,5.33-1.7,5.33-4.33v-0.07    c0-2.77-2-4.29-5.37-4.29h-6.62v8.7H243.88z"/>
		<path d="M273.34,62.03h4.22l11.4,26.09h-4.81l-2.63-6.25h-12.25l-2.66,6.25h-4.66L273.34,62.03z M279.85,77.83l-4.48-10.36    l-4.44,10.36H279.85z"/>
		<path d="M298.13,62.21h4.22l13.88,17.91V62.21h4.48v25.9h-3.81L302.6,69.69v18.43h-4.48V62.21z"/>
		<path d="M331.35,62.21h9.66c8.14,0,13.76,5.59,13.76,12.88v0.07c0,7.29-5.62,12.95-13.76,12.95h-9.66V62.21z M341.01,83.97    c5.44,0,8.99-3.66,8.99-8.73v-0.07c0-5.07-3.55-8.81-8.99-8.81h-5.11v17.61H341.01z"/>
		<path d="M362.54,84.34l2.74-3.26c2.48,2.15,4.96,3.37,8.18,3.37c2.81,0,4.59-1.3,4.59-3.26v-0.07c0-1.85-1.04-2.85-5.85-3.96    c-5.51-1.33-8.62-2.96-8.62-7.73v-0.07c0-4.44,3.7-7.51,8.84-7.51c3.77,0,6.77,1.15,9.4,3.26l-2.44,3.44    c-2.33-1.74-4.66-2.66-7.03-2.66c-2.66,0-4.22,1.37-4.22,3.07v0.07c0,2,1.18,2.89,6.14,4.07c5.48,1.33,8.33,3.29,8.33,7.59v0.07    c0,4.85-3.81,7.73-9.25,7.73C369.39,88.49,365.65,87.12,362.54,84.34z"/>
		<path d="M201.19,116.53l8.92-7.58c3.55-3,4.85-4.66,4.85-6.99c0-2.55-1.81-4.03-4.18-4.03s-4,1.3-5.99,3.89l-3.22-2.52    c2.48-3.48,4.92-5.44,9.55-5.44c5.07,0,8.55,3.11,8.55,7.73v0.07c0,4.07-2.15,6.29-6.73,10.03l-5.33,4.44h12.32v4h-18.72V116.53z"/>
		<path d="M226.68,107.24v-0.07c0-7.4,4.51-13.39,11.32-13.39c6.77,0,11.25,5.92,11.25,13.32v0.07c0,7.4-4.51,13.39-11.32,13.39    C231.12,120.56,226.68,114.64,226.68,107.24z M244.55,107.24v-0.07c0-5.11-2.63-9.29-6.62-9.29c-4,0-6.55,4.07-6.55,9.21v0.07    c0,5.11,2.59,9.29,6.62,9.29S244.55,112.35,244.55,107.24z"/>
		<path d="M251.99,116.53l8.92-7.58c3.55-3,4.85-4.66,4.85-6.99c0-2.55-1.81-4.03-4.18-4.03s-4,1.3-5.99,3.89l-3.22-2.52    c2.48-3.48,4.92-5.44,9.55-5.44c5.07,0,8.55,3.11,8.55,7.73v0.07c0,4.07-2.15,6.29-6.73,10.03l-5.33,4.44h12.32v4h-18.72V116.53z"/>
		<path d="M277.48,107.24v-0.07c0-7.4,4.51-13.39,11.32-13.39c6.77,0,11.25,5.92,11.25,13.32v0.07c0,7.4-4.51,13.39-11.32,13.39    C281.92,120.56,277.48,114.64,277.48,107.24z M295.35,107.24v-0.07c0-5.11-2.63-9.29-6.62-9.29c-4,0-6.55,4.07-6.55,9.21v0.07    c0,5.11,2.59,9.29,6.62,9.29S295.35,112.35,295.35,107.24z"/>
	</g>
</g>
</svg>