<svg width="60" height="86" viewBox="0 0 60 86" version="1.1" xmlns="http://www.w3.org/2000/svg" xmlns:xlink="http://www.w3.org/1999/xlink">
    <g id="Canvas" fill="none">
        <g id="Vector">
            <path d="M 30 0C 13.4577 0 -3.4534e-07 13.6692 -3.4534e-07 30.4701L -3.4534e-07 54.7344C -3.4534e-07 71.5353 13.4577 85.2036 30 85.2036C 46.5413 85.2036 60 71.5767 60 54.8275L 60 30.4701C 60 13.6692 46.5413 0 30 0ZM 54.3573 54.8275C 54.3573 68.4658 43.4312 79.5611 30 79.5611C 16.5696 79.5611 5.64274 68.4235 5.64274 54.7335L 5.64274 30.4701C 5.64274 16.7801 16.5696 5.64258 30 5.64258C 43.4314 5.64258 54.3573 16.7801 54.3573 30.4701L 54.3573 54.8275Z" fill="white"/>
        </g>
        <g id="Group">
            <g id="Group_2">
                <g id="Vector_2">
                    <path d="M 2.82137 -1.01571e-06C 1.26308 -1.01571e-06 8.73508e-07 1.26308 8.73508e-07 2.82137L 8.73508e-07 12.696C 8.73508e-07 14.2543 1.26308 15.5174 2.82137 15.5174C 4.37967 15.5174 5.64275 14.2543 5.64275 12.696L 5.64275 2.82137C 5.64275 1.26308 4.37967 -1.01571e-06 2.82137 -1.01571e-06Z" transform="translate(27.1787 23.3232)" fill="white"/>
                </g>
            </g>
        </g>
    </g>
</svg>

